<?xml version="1.0"?>
<svg xmlns="http://www.w3.org/2000/svg" xmlns:xlink="http://www.w3.org/1999/xlink" xmlns:svgjs="http://svgjs.com/svgjs" version="1.1" width="512" height="512" x="0" y="0" viewBox="0 0 448 448.252" style="enable-background:new 0 0 512 512" xml:space="preserve" class=""><g><path xmlns="http://www.w3.org/2000/svg" d="m244.5 212.097656c-3.019531 0-5.277344 1.785156-5.277344 3.382813 0 1.59375 2.257813 3.382812 5.277344 3.382812 3.023438 0 5.28125-1.789062 5.28125-3.382812 0-1.597657-2.261719-3.382813-5.28125-3.382813zm0 0" fill="#2b2b2b" data-original="#000000" style="" class=""/><path xmlns="http://www.w3.org/2000/svg" d="m249.78125 171.589844-35.441406 8.738281v6.195313l35.441406-8.742188zm0 0" fill="#2b2b2b" data-original="#000000" style="" class=""/><path xmlns="http://www.w3.org/2000/svg" d="m197.0625 239.101562c3.019531 0 5.277344-1.785156 5.277344-3.382812s-2.257813-3.378906-5.277344-3.378906c-3.023438 0-5.28125 1.78125-5.28125 3.378906s2.257812 3.382812 5.28125 3.382812zm0 0" fill="#2b2b2b" data-original="#000000" style="" class=""/><path xmlns="http://www.w3.org/2000/svg" d="m214.78125.933594c-3.730469-.402344-7.492188-.691406-11.300781-.828125-1.40625-.0507815-2.820313-.0859378-4.238281-.10156275-.820313-.0078125-1.640626 0-2.457032 0v111.55078175c5.894532-1.519532 11.921875-2.472657 18-2.84375zm0 0" fill="#2b2b2b" data-original="#000000" style="" class=""/><path xmlns="http://www.w3.org/2000/svg" d="m136.78125 204.515625c0 46.390625 37.609375 84 84 84s84-37.609375 84-84-37.609375-84-84-84c-46.367188.054687-83.945312 37.632813-84 84zm84-76c41.972656 0 76 34.027344 76 76s-34.027344 76-76 76-76-34.027344-76-76c.046875-41.953125 34.046875-75.953125 76-76zm0 0" fill="#2b2b2b" data-original="#000000" style="" class=""/><path xmlns="http://www.w3.org/2000/svg" d="m220.78125 268.515625c35.347656 0 64-28.652344 64-64s-28.652344-64-64-64-64 28.652344-64 64c.039062 35.328125 28.671875 63.960937 64 64zm-23.71875-48.175781c1.785156-.003906 3.5625.246094 5.277344.738281v-45.449219c0-2.757812 1.882812-5.164062 4.5625-5.824218l47.441406-11.699219c1.792969-.441407 3.683594-.035157 5.136719 1.101562s2.300781 2.878907 2.300781 4.722657v51.550781c0 .21875-.011719.4375-.035156.65625-.390625 8.175781-7.964844 14.726562-17.246094 14.726562-9.527344 0-17.277344-6.898437-17.277344-15.382812s7.75-15.382813 17.277344-15.382813c1.789062 0 3.5625.25 5.28125.742188v-10.699219l-35.441406 8.742187v36.839844c0 .21875-.011719.4375-.035156.652344-.390626 8.179688-7.964844 14.730469-17.242188 14.730469-9.527344 0-17.28125-6.902344-17.28125-15.382813 0-8.484375 7.753906-15.382812 17.28125-15.382812zm0 0" fill="#2b2b2b" data-original="#000000" style="" class=""/><path xmlns="http://www.w3.org/2000/svg" d="m1.6875 279.835938h50.148438c3.3125 0 6 2.6875 6 6v55.835937c0 8.59375 3.476562 16.824219 9.640624 22.816406 6.164063 5.988281 14.492188 9.230469 23.082032 8.984375 2.6875-.085937 28.601562-.207031 49.875-.300781h.128906c13.949219-.019531 26.113281 9.46875 29.492188 23 .121093.476563.183593.96875.183593 1.460937v50.621094h139.449219c-1.179688-23.253906-4.75-105.125.355469-159.96875 1.832031-19.648437 19.632812-63.789062 20.386719-65.65625.074218-.179687.15625-.355468.246093-.527344 36.710938-70.5 13.253907-157.375-53.957031-199.816406-15.285156-9.570312-32.21875-16.203125-49.9375-19.5625v105.988282c48.78125 3.054687 87.480469 42.269531 89.882812 91.089843 2.40625 48.816407-32.253906 91.648438-80.5 99.480469-48.246093 7.832031-94.671874-21.835938-107.835937-68.90625-13.164063-47.074219 11.144531-96.519531 56.453125-114.847656v-115.042969c-82.058594 6.300781-146.75 72.417969-151.261719 154.59375-.132812 2.167969-.226562 22.625-.253906 35.015625-.003906.726562-.136719 1.449219-.394531 2.125l-32.640625 85.503906c-.183594.480469-.121094 1.019532.171875 1.441406.289062.421876.769531.675782 1.285156.675782zm0 0" fill="#2b2b2b" data-original="#000000" style="" class=""/></g></svg>
