<?xml version="1.0"?>
<svg xmlns="http://www.w3.org/2000/svg" xmlns:xlink="http://www.w3.org/1999/xlink" xmlns:svgjs="http://svgjs.com/svgjs" version="1.1" width="512" height="512" x="0" y="0" viewBox="0 0 56 56" style="enable-background:new 0 0 512 512" xml:space="preserve" class=""><g><g xmlns="http://www.w3.org/2000/svg" id="Page-1" fill="none" fill-rule="evenodd"><g id="037---Mix-CD" fill="rgb(0,0,0)" fill-rule="nonzero" transform="translate(-1)"><path id="Shape" d="m28 48.07c.0276264-.8101872-.2772324-1.5964381-.8438061-2.1762319-.5665736-.5797937-1.3455851-.9027032-2.1561939-.8937681-1.2801282.0147911-2.4594851.6973771-3.11 1.8-.1887587.3065299-.5222446.4940535-.8822255.4960873s-.6955644-.1817098-.8877745-.4860873c-.6555785-1.1037362-1.8364244-1.7887782-3.12-1.81-.8106088-.0089351-1.5896203.3139744-2.1561939.8937681-.5665737.5797938-.8714325 1.3660447-.8438061 2.1762319 0 2.34 2.51 4.51 6.65 7.82.2091574.1502137.4908426.1502137.7 0 4.14-3.31 6.65-5.48 6.65-7.82z" fill="#2b2b2b" data-original="#000000" style="" class=""/><path id="Shape" d="m32 41.89c.0040349-.4247741.0340913-.848902.09-1.27-1.011522.2474707-2.0486578.3750149-3.09.38-4.218988-.0020031-8.174885-2.0503535-10.6114928-5.494596s-3.0511608-7.8564058-1.6485072-11.835404c.2135632-.4727147.7531241-.7036541 1.2425579-.5318316.4894338.1718226.7662329.6893563.6374421 1.1918316-.4110892 1.1798889-.6206827 2.4205475-.62 3.67-.0066034 3.5849439 1.7373068 6.9473622 4.6714958 9.0070713 2.934189 2.059709 6.6891164 2.5573029 10.0585042 1.3329287.9504281-2.2625195 3.0054141-3.8709339 5.43-4.25 2.2445331-3.3761404 2.4500569-7.713221.5348392-11.286482s-5.6406743-5.8033913-9.6948392-5.803518c-2.1655286-.0003749-4.2833663.6360197-6.09 1.83-.2955284.2380487-.7003343.2883109-1.0451054.1297641-.3447712-.1585468-.570095-.4985809-.5817287-.8778815-.0116337-.3793005.1924276-.7325045.5268341-.9118826 4.956883-3.2902903 11.5148316-2.7956809 15.9221313 1.2008688 4.4072996 3.9965497 5.5390816 10.4750062 2.7478687 15.7291312 1.9978345.3478986 3.790691 1.4371839 5.02 3.05 1.4773565-1.9681059 3.7891582-3.1332539 6.25-3.15 1.5297713-.0080383 3.0196989.4874329 4.24 1.41 3.7506731-13.6832754-3.328819-28.00876318-16.4767194-33.34095693-13.1479003-5.33219375-28.2058791.01533706-35.04574695 12.44577473-6.83986788 12.4304377-3.29835731 28.0123668 8.24246635 36.2651822-.4580708-.8303445-.7020839-1.7617183-.71-2.71-.0225724-1.3392944.4946836-2.631344 1.4352355-3.5850636s2.2252857-1.4888877 3.5647645-1.4849364c1.5123259-.0071378 2.9601949.6118262 4 1.71 1.0398051-1.0981738 2.4876741-1.7171378 4-1.71 1.3394788-.0039513 2.6242126.5312168 3.5647645 1.4849364s1.4578079 2.2457692 1.4352355 3.5850636c0 2.69-1.93 4.85-5.22 7.6 1.3963451.2161499 2.8070287.326464 4.22.33 3.6389241.0099541 7.2441866-.6968268 10.61-2.08-4.8-4.4-7.61-7.87-7.61-12.03zm-3-18.89c2.7614237 0 5 2.2385763 5 5s-2.2385763 5-5 5-5-2.2385763-5-5 2.2385763-5 5-5zm-22.74-2.68c-.83892634 2.4734297-1.26462672 5.0681749-1.26 7.68 0 .5522847-.44771525 1-1 1s-1-.4477153-1-1c-.00223107-2.8296603.46060354-5.6404515 1.37-8.32.09557559-.3609998.38433426-.6386672.74879884-.7200375.36446457-.0813702.74390103.0471162.98394129.3331865s.30068426.682054.15725987 1.026851zm3.57 1.97c-.55234803 1.8529584-.83194775 3.7764697-.83 5.71 0 .5522847-.44771525 1-1 1s-1-.4477153-1-1c-.00074275-2.1302423.30918523-4.2492065.92-6.29.07356299-.2546215.24634137-.4690112.47951578-.5950006.23317442-.1259894.50719091-.1530131.76048422-.0749994.25504918.0762536.46916811.2510531.59492753.4856788.12575942.2346258.15277857.5097108.07507247.7643212zm1.59-10.61c-.1810131.1960751-.4328865.3116683-.6995754.3210588-.2666889.0093904-.5260688-.0882009-.7204246-.2710588-.39868884-.3775866-.42094186-1.0051215-.05-1.41 4.9229856-5.29294705 11.8215233-8.30585172 19.05-8.32.5522847 0 1 .44771525 1 1s-.4477153 1-1 1c-6.6710205.01344946-13.0373254 2.79463384-17.58 7.68zm2.34 3.38c-.1723833.2015762-.4177863.3264119-.6822166.3470412-.2644304.0206293-.5262244-.0646378-.7277834-.2370412-.2018949-.1700063-.3272012-.4138605-.3478756-.6769883-.0206743-.2631279.0650095-.5235599.2378756-.7230117 4.171211-4.929946 10.3021858-7.77228933 16.76-7.77.5522847 0 1 .44771525 1 1s-.4477153 1-1 1c-5.8705833-.00025029-11.4441185 2.5817155-15.24 7.06z" fill="#2b2b2b" data-original="#000000" style="" class=""/><path id="Shape" d="m51.75 36c-2.2658654.0859907-4.3100033 1.3850689-5.35 3.4-.1670864.3449903-.5166774.5641101-.9.5641101s-.7329136-.2191198-.9-.5641101c-1.0396749-2.0152253-3.0840049-3.3144257-5.35-3.4-.1704402.0000253-.3407323.0100425-.51.03h-.02c-1.9596073.2234838-3.618616 1.5483596-4.27 3.41-.02.05-.04.09-.06.14-.2613534.7419774-.3932727 1.5233454-.39 2.31 0 4.29 4.02 8.07 10.64 13.8.4999847.4101375 1.2200153.4101375 1.72 0 6.62-5.73 10.64-9.51 10.64-13.8 0-3.36-2.26-5.89-5.25-5.89zm-12.5 4c-.92 0-1.25 1.13-1.25 1.89 0 .5522847-.4477153 1-1 1s-1-.4477153-1-1c0-1.93 1.12-3.89 3.25-3.89.5522847 0 1 .4477153 1 1s-.4477153 1-1 1z" fill="#2b2b2b" data-original="#000000" style="" class=""/></g></g></g></svg>
